<?xml version="1.0" standalone="no"?>
<!DOCTYPE svg PUBLIC "-//W3C//DTD SVG 20010904//EN"
 "http://www.w3.org/TR/2001/REC-SVG-20010904/DTD/svg10.dtd">
<svg version="1.0" xmlns="http://www.w3.org/2000/svg"
 width="315.000000pt" height="315.000000pt" viewBox="0 0 315.000000 315.000000"
 preserveAspectRatio="xMidYMid meet">
<metadata>
Created by potrace 1.11, written by Peter Selinger 2001-2013
</metadata>
<g transform="translate(0.000000,315.000000) scale(0.100000,-0.100000)"
fill="#000000" stroke="none">
<path d="M1280 2987 c-208 -79 -387 -195 -544 -352 -205 -204 -338 -441 -404
-718 -23 -100 -26 -132 -26 -297 0 -160 3 -198 23 -280 81 -329 274 -601 566
-797 206 -138 486 -234 733 -249 l102 -7 0 -49 0 -48 -80 0 -80 0 0 -45 0 -45
200 0 200 0 0 45 0 45 -76 0 -76 0 2 63 c2 34 2 78 1 98 l-1 35 -148 12 c-519
41 -940 308 -1148 727 -77 156 -105 272 -111 455 -4 106 -1 169 11 236 70 403
326 763 694 973 81 46 251 121 276 121 6 0 17 4 24 8 18 12 -14 102 -36 102
-10 -1 -55 -15 -102 -33z"/>
<path d="M1527 2789 c-288 -30 -578 -190 -759 -417 -312 -393 -339 -938 -68
-1352 315 -480 931 -652 1447 -405 121 57 199 111 295 203 466 445 475 1187
19 1643 -187 188 -426 301 -693 329 -105 11 -130 11 -241 -1z m353 -199 c162
-40 336 -138 452 -257 l57 -58 -832 -347 c-458 -191 -840 -350 -849 -354 -16
-5 -18 1 -18 59 0 314 158 626 406 803 118 84 310 159 454 178 70 9 247 -4
330 -24z m640 -520 c23 -50 41 -92 39 -94 -13 -10 -1771 -738 -1774 -734 -18
18 -82 215 -72 224 2 2 28 -3 58 -12 68 -20 147 -15 185 13 15 11 44 49 64 84
60 106 124 131 245 93 94 -30 166 1 222 97 62 107 120 134 224 105 120 -33
190 -11 237 75 41 77 68 106 118 125 43 16 47 16 122 -4 129 -35 193 -7 252
110 18 37 27 27 80 -82z m90 -298 c10 -67 10 -86 0 -92 -7 -4 -381 -162 -832
-350 l-820 -342 -23 22 c-13 12 -42 48 -64 79 l-40 57 877 366 c567 237 879
362 884 355 3 -6 12 -49 18 -95z m-39 -424 c-95 -269 -293 -486 -538 -588
-143 -60 -213 -73 -378 -73 -122 0 -164 4 -229 21 -90 25 -228 82 -232 97 -2
6 310 141 694 302 383 160 698 291 699 292 1 1 -6 -23 -16 -51z"/>
<path d="M1674 2443 c2 -16 5 -34 5 -40 2 -21 49 -15 56 7 9 29 -12 60 -41 60
-21 0 -24 -4 -20 -27z"/>
<path d="M1402 2423 c2 -31 7 -39 26 -41 13 -2 25 3 28 13 9 23 -16 65 -38 65
-16 0 -19 -6 -16 -37z"/>
<path d="M1990 2326 c0 -39 11 -56 35 -56 30 0 39 27 20 56 -21 32 -55 32 -55
0z"/>
<path d="M1049 2229 c-8 -16 -8 -28 0 -45 21 -47 66 -19 55 35 -8 37 -37 42
-55 10z"/>
<path d="M1555 2098 c10 -44 13 -48 36 -48 25 0 35 25 21 56 -8 16 -20 24 -38
24 -24 0 -25 -2 -19 -32z"/>
<path d="M863 1866 c-29 -30 -31 -76 -5 -76 28 0 52 32 52 68 0 38 -16 41 -47
8z"/>
</g>
</svg>
